G75*
%MOIN*%
%OFA0B0*%
%FSLAX25Y25*%
%IPPOS*%
%LPD*%
%AMOC8*
5,1,8,0,0,1.08239X$1,22.5*
%
%ADD10R,0.07000X0.07000*%
%ADD11C,0.07000*%
%ADD12C,0.01000*%
%ADD13C,0.04356*%
D10*
X0037953Y0136368D03*
D11*
X0047953Y0136368D03*
X0057953Y0136368D03*
X0067953Y0136368D03*
X0077953Y0136368D03*
X0087953Y0136368D03*
X0097953Y0136368D03*
X0107953Y0136368D03*
X0117953Y0136368D03*
X0127953Y0136368D03*
X0137953Y0136368D03*
X0147953Y0136368D03*
X0157953Y0136368D03*
X0167953Y0136368D03*
X0177953Y0136368D03*
X0187953Y0136368D03*
X0197953Y0136368D03*
X0207953Y0136368D03*
X0217953Y0136368D03*
X0227953Y0136368D03*
X0227953Y0146368D03*
X0217953Y0146368D03*
X0207953Y0146368D03*
X0197953Y0146368D03*
X0187953Y0146368D03*
X0177953Y0146368D03*
X0167953Y0146368D03*
X0157953Y0146368D03*
X0147953Y0146368D03*
X0137953Y0146368D03*
X0127953Y0146368D03*
X0117953Y0146368D03*
X0107953Y0146368D03*
X0097953Y0146368D03*
X0087953Y0146368D03*
X0077953Y0146368D03*
X0067953Y0146368D03*
X0057953Y0146368D03*
X0047953Y0146368D03*
X0037953Y0146368D03*
D12*
X0046402Y0075701D02*
X0052487Y0075701D01*
X0080302Y0103516D01*
X0140240Y0103516D01*
X0144762Y0098995D01*
X0144762Y0082774D01*
X0159108Y0068428D01*
X0204992Y0068428D01*
X0221700Y0085136D01*
X0221700Y0130938D01*
X0223076Y0132313D01*
X0223076Y0141491D01*
X0227953Y0146368D01*
X0233885Y0148236D02*
X0229758Y0152363D01*
X0105556Y0152363D01*
X0103099Y0149906D01*
X0103099Y0141514D01*
X0097953Y0136368D01*
X0092976Y0132254D02*
X0092976Y0140989D01*
X0087953Y0146368D01*
X0092976Y0132254D02*
X0096319Y0129266D01*
X0158715Y0129266D01*
X0161663Y0126319D01*
X0161663Y0083072D01*
X0166282Y0078453D01*
X0187800Y0078453D01*
X0193269Y0083922D01*
X0199803Y0083922D01*
X0207845Y0081008D02*
X0207845Y0136261D01*
X0207953Y0136368D01*
X0212842Y0141257D02*
X0217953Y0146368D01*
X0212842Y0141257D02*
X0194187Y0141257D01*
X0192910Y0139980D01*
X0192910Y0090346D01*
X0186170Y0083606D01*
X0170073Y0083606D01*
X0160778Y0073146D02*
X0147415Y0086509D01*
X0147415Y0102729D01*
X0143090Y0107054D01*
X0078435Y0107054D01*
X0053447Y0082066D01*
X0052475Y0082066D01*
X0046402Y0075701D02*
X0039424Y0082679D01*
X0038843Y0082099D01*
X0031352Y0082099D01*
X0124067Y0056039D02*
X0205376Y0056039D01*
X0233885Y0084547D01*
X0233885Y0148236D01*
X0207845Y0081008D02*
X0199983Y0073146D01*
X0160778Y0073146D01*
D13*
X0170073Y0083606D03*
X0199803Y0083922D03*
X0124067Y0056039D03*
X0052475Y0082066D03*
X0031352Y0082099D03*
M02*
