%
M48
M72
T01C0.02756
T02C0.03937
T03C0.10827
%
T01
X124067Y56039
X170073Y83606
X199803Y83922
X52475Y82066
X31352Y82099
T02
X37953Y136368
X47953Y136368
X57953Y136368
X67953Y136368
X77953Y136368
X87953Y136368
X97953Y136368
X107953Y136368
X117953Y136368
X127953Y136368
X137953Y136368
X147953Y136368
X157953Y136368
X167953Y136368
X177953Y136368
X187953Y136368
X197953Y136368
X207953Y136368
X217953Y136368
X227953Y136368
X227953Y146368
X217953Y146368
X207953Y146368
X197953Y146368
X187953Y146368
X177953Y146368
X167953Y146368
X157953Y146368
X147953Y146368
X137953Y146368
X127953Y146368
X117953Y146368
X107953Y146368
X97953Y146368
X87953Y146368
X77953Y146368
X67953Y146368
X57953Y146368
X47953Y146368
X37953Y146368
T03
X18780Y50817
X18780Y141368
X247126Y141368
X247126Y50817
M30
