G75*
%MOIN*%
%OFA0B0*%
%FSLAX25Y25*%
%IPPOS*%
%LPD*%
%AMOC8*
5,1,8,0,0,1.08239X$1,22.5*
%
%ADD10R,0.06706X0.05918*%
%ADD11R,0.10446X0.04737*%
%ADD12R,0.04737X0.10446*%
%ADD13R,0.07800X0.07800*%
%ADD14C,0.07800*%
%ADD15C,0.11627*%
%ADD16C,0.05156*%
D10*
X0031429Y0088674D03*
X0031429Y0095367D03*
X0031429Y0102059D03*
X0052218Y0102453D03*
X0052218Y0095760D03*
X0052218Y0089067D03*
X0170000Y0090344D03*
X0170000Y0097037D03*
X0170000Y0103730D03*
X0200000Y0103730D03*
X0200000Y0097037D03*
X0200000Y0090344D03*
D11*
X0135197Y0083533D03*
X0135197Y0078022D03*
X0135197Y0072510D03*
X0135197Y0066998D03*
X0135197Y0061486D03*
X0135197Y0055974D03*
X0135197Y0050463D03*
X0135197Y0044951D03*
X0084803Y0044951D03*
X0084803Y0050463D03*
X0084803Y0055974D03*
X0084803Y0061486D03*
X0084803Y0066998D03*
X0084803Y0072510D03*
X0084803Y0078022D03*
X0084803Y0083533D03*
D12*
X0090709Y0092569D03*
X0096220Y0092569D03*
X0101732Y0092569D03*
X0107244Y0092569D03*
X0112756Y0092569D03*
X0118268Y0092569D03*
X0123780Y0092569D03*
X0129291Y0092569D03*
D13*
X0037953Y0136368D03*
D14*
X0047953Y0136368D03*
X0057953Y0136368D03*
X0067953Y0136368D03*
X0077953Y0136368D03*
X0087953Y0136368D03*
X0097953Y0136368D03*
X0107953Y0136368D03*
X0117953Y0136368D03*
X0127953Y0136368D03*
X0137953Y0136368D03*
X0147953Y0136368D03*
X0157953Y0136368D03*
X0167953Y0136368D03*
X0177953Y0136368D03*
X0187953Y0136368D03*
X0197953Y0136368D03*
X0207953Y0136368D03*
X0217953Y0136368D03*
X0227953Y0136368D03*
X0227953Y0146368D03*
X0217953Y0146368D03*
X0207953Y0146368D03*
X0197953Y0146368D03*
X0187953Y0146368D03*
X0177953Y0146368D03*
X0167953Y0146368D03*
X0157953Y0146368D03*
X0147953Y0146368D03*
X0137953Y0146368D03*
X0127953Y0146368D03*
X0117953Y0146368D03*
X0107953Y0146368D03*
X0097953Y0146368D03*
X0087953Y0146368D03*
X0077953Y0146368D03*
X0067953Y0146368D03*
X0057953Y0146368D03*
X0047953Y0146368D03*
X0037953Y0146368D03*
D15*
X0018780Y0050817D03*
X0018780Y0141368D03*
X0247126Y0141368D03*
X0247126Y0050817D03*
D16*
X0199803Y0083922D03*
X0170073Y0083606D03*
X0124067Y0056039D03*
X0052475Y0082066D03*
X0031352Y0082099D03*
M02*
