G75*
%MOIN*%
%OFA0B0*%
%FSLAX25Y25*%
%IPPOS*%
%LPD*%
%AMOC8*
5,1,8,0,0,1.08239X$1,22.5*
%
%ADD10R,0.07800X0.07800*%
%ADD11C,0.07800*%
%ADD12C,0.11627*%
%ADD13C,0.05156*%
D10*
X0037953Y0136368D03*
D11*
X0047953Y0136368D03*
X0057953Y0136368D03*
X0067953Y0136368D03*
X0077953Y0136368D03*
X0087953Y0136368D03*
X0097953Y0136368D03*
X0107953Y0136368D03*
X0117953Y0136368D03*
X0127953Y0136368D03*
X0137953Y0136368D03*
X0147953Y0136368D03*
X0157953Y0136368D03*
X0167953Y0136368D03*
X0177953Y0136368D03*
X0187953Y0136368D03*
X0197953Y0136368D03*
X0207953Y0136368D03*
X0217953Y0136368D03*
X0227953Y0136368D03*
X0227953Y0146368D03*
X0217953Y0146368D03*
X0207953Y0146368D03*
X0197953Y0146368D03*
X0187953Y0146368D03*
X0177953Y0146368D03*
X0167953Y0146368D03*
X0157953Y0146368D03*
X0147953Y0146368D03*
X0137953Y0146368D03*
X0127953Y0146368D03*
X0117953Y0146368D03*
X0107953Y0146368D03*
X0097953Y0146368D03*
X0087953Y0146368D03*
X0077953Y0146368D03*
X0067953Y0146368D03*
X0057953Y0146368D03*
X0047953Y0146368D03*
X0037953Y0146368D03*
D12*
X0018780Y0050817D03*
X0018780Y0141368D03*
X0247126Y0141368D03*
X0247126Y0050817D03*
D13*
X0199803Y0083922D03*
X0170073Y0083606D03*
X0124067Y0056039D03*
X0052475Y0082066D03*
X0031352Y0082099D03*
M02*
